#!OML:ASF G:\JayActor3\Patient Classification 1\Patient 1\Session 6\male.ASF
:FULLY-SPECIFIED
:DEGREES
1287
root 10.4217 12.1842 -3.65159 44.5908 -59.2146 -11.071
lowerback 38.3947 3.27915 -1.98111
upperback 20.326 1.39745 0.524519
thorax 3.51397 -0.189264 1.12215
lowerneck 4.37544 1.18033 -0.799533
upperneck -7.88685 1.52308 -0.0283062
head -3.30725 0.780292 0.0660105
rclavicle -3.57812e-014 7.55382e-015
rhumerus 64.5713 12.0993 -36.2554
rradius 56.2131
rwrist 17.2193
rhand -53.1962 4.42248
rfingers 7.12502
rthumb -25.6537 -23.8692
lclavicle -3.57812e-014 7.55382e-015
lhumerus 62.6075 -9.18369 33.5428
lradius 61.3481
lwrist -4.02703
lhand -53.4911 -11.1782
lfingers 7.12502
lthumb -25.9361 17.0724
rfemur -108.226 -2.71188 33.7546
rtibia 94.5442
rfoot -19.3369 -11.7596
rtoes 2.80025
lfemur -111.608 14.173 -33.7001
ltibia 93.8593
lfoot -15.9714 0.635359
ltoes 7.40659
1288
root 10.3434 12.0835 -3.61948 45.8213 -59.128 -11.6763
lowerback 38.8887 3.44985 -2.11551
upperback 20.3616 1.51734 0.539724
thorax 3.40079 -0.149148 1.16523
lowerneck 4.7586 1.20559 -0.774199
upperneck -8.39119 1.55662 -0.0145781
head -3.55671 0.796051 0.0600261
rclavicle -2.06736e-014 -1.47101e-014
rhumerus 66.2546 11.8784 -35.2914
rradius 52.6702
rwrist 17.1751
rhand -52.6365 4.30758
rfingers 7.12502
rthumb -25.1175 -24.0603
lclavicle -2.06736e-014 -1.47101e-014
lhumerus 64.2364 -8.97573 31.3518
lradius 57.7541
lwrist -3.40653
lhand -52.6774 -10.2815
lfingers 7.12502
lthumb -25.1567 18.0808
rfemur -109.487 -2.48824 34.6823
rtibia 95.6563
rfoot -19.8139 -11.9866
rtoes 2.76302
lfemur -113.122 14.3652 -33.9855
ltibia 95.1179
lfoot -16.7167 0.763493
ltoes 7.65743
1289
root 10.2677 11.9924 -3.58635 47.1807 -59.0398 -12.2604
lowerback 39.2833 3.5903 -2.245
upperback 20.385 1.60899 0.52073
thorax 3.30733 -0.117304 1.17873
lowerneck 5.14038 1.23999 -0.794208
upperneck -8.8927 1.6032 0.0410629
head -3.80877 0.81772 0.0749725
rclavicle 6.12257e-014 1.39646e-013
rhumerus 67.9929 11.6203 -34.3162
rradius 48.9857
rwrist 16.966
rhand -52.0924 4.21521
rfingers 7.12502
rthumb -24.5961 -24.2246
lclavicle 6.12257e-014 1.39646e-013
lhumerus 65.7746 -8.74388 29.0117
lradius 54.1489
lwrist -2.73458
lhand -51.9167 -9.604
lfingers 7.12502
lthumb -24.4277 18.8587
rfemur -110.814 -2.26057 35.628
rtibia 96.635
rfoot -20.2399 -12.1053
rtoes 2.81224
lfemur -114.713 14.5333 -34.3301
ltibia 96.2394
lfoot -17.3943 0.762541
ltoes 8.00123
1290
root 10.1947 11.9088 -3.55287 48.7197 -58.9497 -12.828
lowerback 39.492 3.67974 -2.36195
upperback 20.4086 1.65551 0.445593
thorax 3.27282 -0.0991112 1.14255
lowerneck 5.48686 1.28352 -0.880915
upperneck -9.38263 1.66172 0.145655
head -4.054 0.845128 0.117612
rclavicle -6.12257e-014 1.70955e-014
rhumerus 69.7931 11.3237 -33.344
rradius 45.2145
rwrist 16.6456
rhand -51.5635 4.1203
rfingers 7.12502
rthumb -24.089 -24.3876
lclavicle -6.12257e-014 1.70955e-014
lhumerus 67.2222 -8.42774 26.4466
lradius 50.5656
lwrist -2.03209
lhand -51.2211 -9.17793
lfingers 7.12502
lthumb -23.7607 19.373
rfemur -112.268 -2.00293 36.5637
rtibia 97.4969
rfoot -20.5933 -12.0951
rtoes 2.91352
lfemur -116.455 14.6453 -34.7014
ltibia 97.2462
lfoot -17.9525 0.649607
ltoes 8.26003
1291
root 10.1243 11.8314 -3.51974 50.4447 -58.8532 -13.3733
lowerback 39.4773 3.70097 -2.45978
upperback 20.4428 1.64148 0.299178
thorax 3.31953 -0.100309 1.04321
lowerneck 5.79453 1.34417 -1.00752
upperneck -9.8682 1.74398 0.283683
head -4.29382 0.883965 0.177755
rclavicle -3.18055e-015 1.18277e-013
rhumerus 71.6503 10.9884 -32.3569
rradius 41.4344
rwrist 16.2665
rhand -51.0636 4.03357
rfingers 7.12502
rthumb -23.6096 -24.5369
lclavicle -3.18055e-015 1.18277e-013
lhumerus 68.5227 -8.00964 23.6586
lradius 47.0822
lwrist -1.33222
lhand -50.5556 -9.11625
lfingers 7.12502
lthumb -23.1222 19.5162
rfemur -113.865 -1.70168 37.4712
rtibia 98.2539
rfoot -20.8624 -11.9526
rtoes 3.02574
lfemur -118.382 14.685 -35.0806
ltibia 98.1597
lfoot -18.3487 0.421757
ltoes 8.48904
1292
root 10.0561 11.7594 -3.48706 52.302 -58.7356 -13.8675
lowerback 39.2612 3.63161 -2.51823
upperback 20.4972 1.54577 0.0686947
thorax 3.4529 -0.128871 0.862968
lowerneck 6.05205 1.43571 -1.17943
upperneck -10.3621 1.87011 0.468878
head -4.53109 0.94379 0.260001
rclavicle -3.33958e-014 -8.50798e-014
rhumerus 73.5464 10.6147 -31.3304
rradius 37.7494
rwrist 15.9295
rhand -51.0221 4.47747
rfingers 7.12502
rthumb -23.5698 -24.0982
lclavicle -3.33958e-014 -8.50798e-014
lhumerus 69.6252 -7.47392 20.6075
lradius 43.8155
lwrist -0.607865
lhand -49.9804 -9.57835
lfingers 7.12502
lthumb -22.5702 19.1223
rfemur -115.585 -1.37078 38.3365
rtibia 98.9176
rfoot -21.0741 -11.7068
rtoes 3.06125
lfemur -120.465 14.6235 -35.4474
ltibia 98.9912
lfoot -18.5848 0.151803
ltoes 8.53267
1293
root 9.98929 11.6948 -3.45441 54.2019 -58.5931 -14.3039
lowerback 38.9371 3.48882 -2.52861
upperback 20.5814 1.38392 -0.227168
thorax 3.65544 -0.179455 0.610109
lowerneck 6.28767 1.55432 -1.35155
upperneck -10.9129 2.03648 0.668278
head -4.78879 1.02252 0.345054
rclavicle -1.12115e-013 -2.3059e-014
rhumerus 75.4077 10.1619 -30.2336
rradius 34.3379
rwrist 15.7773
rhand -51.7726 5.57588
rfingers 7.12502
rthumb -24.2895 -22.9053
lclavicle -1.12115e-013 -2.3059e-014
lhumerus 70.5209 -6.82374 17.2601
lradius 40.8584
lwrist -0.127484
lhand -49.8958 -11.048
lfingers 7.12502
lthumb -22.4891 17.6625
rfemur -117.322 -1.03176 39.1514
rtibia 99.4874
rfoot -21.2548 -11.3754
rtoes 3.00162
lfemur -122.587 14.4758 -35.7832
ltibia 99.7389
lfoot -18.6952 -0.131787
ltoes 8.48677
1294
root 9.92309 11.6376 -3.42162 56.0742 -58.4221 -14.6714
lowerback 38.5638 3.3077 -2.49645
upperback 20.6967 1.19162 -0.55104
thorax 3.90889 -0.238682 0.314224
lowerneck 6.51245 1.6997 -1.52048
upperneck -11.9368 2.25614 0.955535
head -4.67548 1.11763 0.409321
rclavicle 3.73715e-014 3.49861e-014
rhumerus 77.0881 9.60389 -29.0728
rradius 31.4761
rwrist 15.7497
rhand -53.4728 7.2601
rfingers 7.12502
rthumb -25.9186 -20.9931
lclavicle 3.73715e-014 3.49861e-014
lhumerus 71.2107 -6.0723 13.713
lradius 38.3499
lwrist -0.0844779
lhand -50.666 -12.8431
lfingers 7.12502
lthumb -23.2282 15.7761
rfemur -119.009 -0.698659 39.911
rtibia 99.9694
rfoot -21.4371 -10.9912
rtoes 2.86817
lfemur -124.667 14.2509 -36.0794
ltibia 100.403
lfoot -18.7276 -0.382763
ltoes 8.37618
1295
root 9.85641 11.5883 -3.38876 57.8942 -58.2372 -15.0115
lowerback 38.1909 3.1444 -2.44819
upperback 20.8421 1.02255 -0.862695
thorax 4.19503 -0.286839 0.014155
lowerneck 6.88444 1.85397 -1.67211
upperneck -12.7745 2.4917 1.24589
head -5.00485 1.21987 0.502333
rclavicle 4.21423e-014 -7.95139e-016
rhumerus 78.4314 8.92337 -28.0866
rradius 29.4075
rwrist 15.7986
rhand -56.0115 9.68864
rfingers 7.12502
rthumb -28.3472 -18.1855
lclavicle 4.21423e-014 -7.95139e-016
lhumerus 71.6884 -5.22733 10.2723
lradius 36.4523
lwrist -0.629443
lhand -52.239 -14.7545
lfingers 7.12502
lthumb -24.7365 13.6661
rfemur -120.566 -0.356729 40.6178
rtibia 100.365
rfoot -21.6515 -10.5837
rtoes 2.68325
lfemur -126.631 14.0002 -36.3239
ltibia 100.989
lfoot -18.7469 -0.580329
ltoes 8.22413
1296
root 9.7895 11.5472 -3.35522 59.6343 -58.0461 -15.3463
lowerback 37.8562 3.0478 -2.4045
upperback 21.0056 0.926558 -1.10875
thorax 4.48781 -0.306168 -0.237689
lowerneck 7.40174 1.98713 -1.80271
upperneck -13.7378 2.70573 1.54149
head -5.40044 1.30651 0.592457
rclavicle -1.35174e-014 -3.10104e-014
rhumerus 79.3253 8.14631 -27.5144
rradius 28.245
rwrist 15.8905
rhand -59.0669 13.1556
rfingers 7.12502
rthumb -31.2631 -14.1954
lclavicle -1.35174e-014 -3.10104e-014
lhumerus 71.9798 -4.30077 7.30544
lradius 35.2448
lwrist -1.873
lhand -54.6553 -16.4003
lfingers 7.12502
lthumb -27.0504 11.6823
rfemur -121.943 -0.0113048 41.2742
rtibia 100.68
rfoot -21.9126 -10.1687
rtoes 2.47378
lfemur -128.418 13.759 -36.5052
ltibia 101.497
lfoot -18.8004 -0.736245
ltoes 8.05722
1297
root 9.72252 11.514 -3.32122 61.2991 -57.8757 -15.7103
lowerback 37.5698 3.03119 -2.40176
upperback 21.1751 0.908114 -1.29369
thorax 4.77146 -0.297688 -0.427508
lowerneck 8.02643 2.10173 -1.93868
upperneck -14.7434 2.8994 1.84636
head -5.8316 1.37893 0.686234
rclavicle 6.75868e-014 1.27222e-014
rhumerus 79.764 7.33324 -27.687
rradius 28.0001
rwrist 16.1693
rhand -62.065 17.8825
rfingers 7.12502
rthumb -34.1154 -8.87558
lclavicle 6.75868e-014 1.27222e-014
lhumerus 72.045 -3.29318 5.41634
lradius 34.782
lwrist -3.87412
lhand -57.3639 -17.2716
lfingers 7.12502
lthumb -29.6389 10.3805
rfemur -123.117 0.356515 41.8677
rtibia 100.923
rfoot -22.2086 -9.76021
rtoes 2.27619
lfemur -130.006 13.5779 -36.6284
ltibia 101.935
lfoot -18.9179 -0.885498
ltoes 7.9223
